<svg id="visual" viewBox="0 0 960 540" width="960" height="540" xmlns="http://www.w3.org/2000/svg" xmlns:xlink="http://www.w3.org/1999/xlink" version="1.1"><rect x="0" y="0" width="960" height="540" fill="#140021"></rect><path d="M777 540L766 540L766 463L730 463L730 386L776 386L776 309L799 309L799 231L755 231L755 154L778 154L778 77L733 77L733 0L960 0L960 77L960 77L960 154L960 154L960 231L960 231L960 309L960 309L960 386L960 386L960 463L960 463L960 540L960 540Z" fill="#9900ff"></path><path d="M855 540L858 540L858 463L845 463L845 386L843 386L843 309L799 309L799 231L845 231L845 154L842 154L842 77L869 77L869 0L960 0L960 77L960 77L960 154L960 154L960 231L960 231L960 309L960 309L960 386L960 386L960 463L960 463L960 540L960 540Z" fill="#7700c6"></path><path d="M907 540L908 540L908 463L918 463L918 386L878 386L878 309L869 309L869 231L900 231L900 154L865 154L865 77L905 77L905 0L960 0L960 77L960 77L960 154L960 154L960 231L960 231L960 309L960 309L960 386L960 386L960 463L960 463L960 540L960 540Z" fill="#560090"></path></svg>