<svg id="visual" viewBox="0 0 960 540" width="960" height="540" xmlns="http://www.w3.org/2000/svg" xmlns:xlink="http://www.w3.org/1999/xlink" version="1.1"><rect x="0" y="0" width="960" height="540" fill="#002233"></rect><path d="M0 452L107 452L107 424L213 424L213 460L320 460L320 480L427 480L427 454L533 454L533 483L640 483L640 421L747 421L747 474L853 474L853 494L960 494L960 504L960 541L960 541L853 541L853 541L747 541L747 541L640 541L640 541L533 541L533 541L427 541L427 541L320 541L320 541L213 541L213 541L107 541L107 541L0 541Z" fill="#ea0255" stroke-linecap="square" stroke-linejoin="miter"></path></svg>